{
    "asset" : {
        "generator" : "Khronos glTF Blender I/O v1.4.40",
        "version" : "2.0"
    },
    "scene" : 0,
    "scenes" : [
        {
            "name" : "Scene",
            "nodes" : [
                0,
                1,
                2,
                3,
                4,
                5
            ]
        }
    ],
    "nodes" : [
        {
            "mesh" : 0,
            "name" : "Plane",
            "scale" : [
                90.82527923583984,
                287.33367919921875,
                121.05610656738281
            ],
            "translation" : [
                9.36896800994873,
                -0.1381359100341797,
                0
            ]
        },
        {
            "mesh" : 1,
            "name" : "Cube",
            "scale" : [
                4.657784461975098,
                12.699491500854492,
                19.25191307067871
            ],
            "translation" : [
                -14.491722106933594,
                12.195625305175781,
                0
            ]
        },
        {
            "mesh" : 2,
            "name" : "treetrans",
            "rotation" : [
                0.5,
                0.5,
                -0.5,
                0.4999999701976776
            ],
            "scale" : [
                20.20916175842285,
                21.760318756103516,
                21.760318756103516
            ],
            "translation" : [
                -14.618141174316406,
                10.06884479522705,
                0
            ]
        },
        {
            "mesh" : 3,
            "name" : "treetrans.001",
            "rotation" : [
                0.5,
                0.5,
                -0.5,
                0.4999999701976776
            ],
            "scale" : [
                20.20916175842285,
                21.760318756103516,
                21.760318756103516
            ],
            "translation" : [
                33.71109390258789,
                10.06884479522705,
                0
            ]
        },
        {
            "mesh" : 4,
            "name" : "treetrans.002",
            "rotation" : [
                0,
                0.7071068286895752,
                -0.7071068286895752,
                -1.1520232590100932e-07
            ],
            "scale" : [
                15.684267044067383,
                21.760318756103516,
                21.760318756103516
            ],
            "translation" : [
                10.155437469482422,
                10.06884479522705,
                -31.38583755493164
            ]
        },
        {
            "mesh" : 5,
            "name" : "treetrans.003",
            "rotation" : [
                0,
                0.7071068286895752,
                -0.7071068286895752,
                -1.1520232590100932e-07
            ],
            "scale" : [
                15.684267044067383,
                21.760318756103516,
                21.760318756103516
            ],
            "translation" : [
                10.155437469482422,
                10.06884479522705,
                32.855533599853516
            ]
        }
    ],
    "materials" : [
        {
            "doubleSided" : true,
            "name" : "Material.001",
            "pbrMetallicRoughness" : {
                "baseColorTexture" : {
                    "index" : 0,
                    "texCoord" : 0
                },
                "metallicFactor" : 0
            }
        },
        {
            "doubleSided" : true,
            "name" : "Material.010",
            "pbrMetallicRoughness" : {
                "baseColorTexture" : {
                    "index" : 1,
                    "texCoord" : 0
                },
                "metallicFactor" : 0
            }
        },
        {
            "alphaMode" : "BLEND",
            "doubleSided" : true,
            "name" : "treetrans",
            "pbrMetallicRoughness" : {
                "baseColorTexture" : {
                    "index" : 2,
                    "texCoord" : 0
                },
                "metallicFactor" : 0,
                "roughnessFactor" : 0.5
            }
        },
        {
            "alphaMode" : "BLEND",
            "doubleSided" : true,
            "name" : "treetrans.008",
            "pbrMetallicRoughness" : {
                "baseColorTexture" : {
                    "index" : 3,
                    "texCoord" : 0
                },
                "metallicFactor" : 0,
                "roughnessFactor" : 0.5
            }
        },
        {
            "alphaMode" : "BLEND",
            "doubleSided" : true,
            "name" : "treetrans.009",
            "pbrMetallicRoughness" : {
                "baseColorTexture" : {
                    "index" : 4,
                    "texCoord" : 0
                },
                "metallicFactor" : 0,
                "roughnessFactor" : 0.5
            }
        },
        {
            "alphaMode" : "BLEND",
            "doubleSided" : true,
            "name" : "treetrans.010",
            "pbrMetallicRoughness" : {
                "baseColorTexture" : {
                    "index" : 5,
                    "texCoord" : 0
                },
                "metallicFactor" : 0,
                "roughnessFactor" : 0.5
            }
        }
    ],
    "meshes" : [
        {
            "name" : "Plane",
            "primitives" : [
                {
                    "attributes" : {
                        "POSITION" : 0,
                        "NORMAL" : 1,
                        "TEXCOORD_0" : 2
                    },
                    "indices" : 3,
                    "material" : 0
                }
            ]
        },
        {
            "name" : "Cube",
            "primitives" : [
                {
                    "attributes" : {
                        "POSITION" : 4,
                        "NORMAL" : 5,
                        "TEXCOORD_0" : 6
                    },
                    "indices" : 7,
                    "material" : 1
                }
            ]
        },
        {
            "name" : "treetrans",
            "primitives" : [
                {
                    "attributes" : {
                        "POSITION" : 8,
                        "NORMAL" : 9,
                        "TEXCOORD_0" : 10
                    },
                    "indices" : 3,
                    "material" : 2
                }
            ]
        },
        {
            "name" : "treetrans.001",
            "primitives" : [
                {
                    "attributes" : {
                        "POSITION" : 11,
                        "NORMAL" : 12,
                        "TEXCOORD_0" : 13
                    },
                    "indices" : 3,
                    "material" : 3
                }
            ]
        },
        {
            "name" : "treetrans.002",
            "primitives" : [
                {
                    "attributes" : {
                        "POSITION" : 14,
                        "NORMAL" : 15,
                        "TEXCOORD_0" : 16
                    },
                    "indices" : 3,
                    "material" : 4
                }
            ]
        },
        {
            "name" : "treetrans.003",
            "primitives" : [
                {
                    "attributes" : {
                        "POSITION" : 17,
                        "NORMAL" : 18,
                        "TEXCOORD_0" : 19
                    },
                    "indices" : 3,
                    "material" : 5
                }
            ]
        }
    ],
    "textures" : [
        {
            "sampler" : 0,
            "source" : 0
        },
        {
            "sampler" : 1,
            "source" : 1
        },
        {
            "sampler" : 2,
            "source" : 2
        },
        {
            "sampler" : 2,
            "source" : 2
        },
        {
            "sampler" : 2,
            "source" : 2
        },
        {
            "sampler" : 2,
            "source" : 2
        }
    ],
    "images" : [
        {
            "bufferView" : 4,
            "mimeType" : "image/png",
            "name" : "semmless1"
        },
        {
            "bufferView" : 9,
            "mimeType" : "image/png",
            "name" : "houseseemless"
        },
        {
            "bufferView" : 13,
            "mimeType" : "image/png",
            "name" : "treetrans"
        }
    ],
    "accessors" : [
        {
            "bufferView" : 0,
            "componentType" : 5126,
            "count" : 4,
            "max" : [
                0.2746489644050598,
                0,
                0.2746489644050598
            ],
            "min" : [
                -0.2746489644050598,
                0,
                -0.2746489644050598
            ],
            "type" : "VEC3"
        },
        {
            "bufferView" : 1,
            "componentType" : 5126,
            "count" : 4,
            "type" : "VEC3"
        },
        {
            "bufferView" : 2,
            "componentType" : 5126,
            "count" : 4,
            "type" : "VEC2"
        },
        {
            "bufferView" : 3,
            "componentType" : 5123,
            "count" : 6,
            "type" : "SCALAR"
        },
        {
            "bufferView" : 5,
            "componentType" : 5126,
            "count" : 16,
            "max" : [
                1,
                1,
                1
            ],
            "min" : [
                -1,
                -1,
                -1
            ],
            "type" : "VEC3"
        },
        {
            "bufferView" : 6,
            "componentType" : 5126,
            "count" : 16,
            "type" : "VEC3"
        },
        {
            "bufferView" : 7,
            "componentType" : 5126,
            "count" : 16,
            "type" : "VEC2"
        },
        {
            "bufferView" : 8,
            "componentType" : 5123,
            "count" : 24,
            "type" : "SCALAR"
        },
        {
            "bufferView" : 10,
            "componentType" : 5126,
            "count" : 4,
            "max" : [
                1.65625,
                0,
                0.5
            ],
            "min" : [
                -1.65625,
                0,
                -0.5
            ],
            "type" : "VEC3"
        },
        {
            "bufferView" : 11,
            "componentType" : 5126,
            "count" : 4,
            "type" : "VEC3"
        },
        {
            "bufferView" : 12,
            "componentType" : 5126,
            "count" : 4,
            "type" : "VEC2"
        },
        {
            "bufferView" : 14,
            "componentType" : 5126,
            "count" : 4,
            "max" : [
                1.65625,
                0,
                0.5
            ],
            "min" : [
                -1.65625,
                0,
                -0.5
            ],
            "type" : "VEC3"
        },
        {
            "bufferView" : 15,
            "componentType" : 5126,
            "count" : 4,
            "type" : "VEC3"
        },
        {
            "bufferView" : 16,
            "componentType" : 5126,
            "count" : 4,
            "type" : "VEC2"
        },
        {
            "bufferView" : 17,
            "componentType" : 5126,
            "count" : 4,
            "max" : [
                1.65625,
                0,
                0.5
            ],
            "min" : [
                -1.65625,
                0,
                -0.5
            ],
            "type" : "VEC3"
        },
        {
            "bufferView" : 18,
            "componentType" : 5126,
            "count" : 4,
            "type" : "VEC3"
        },
        {
            "bufferView" : 19,
            "componentType" : 5126,
            "count" : 4,
            "type" : "VEC2"
        },
        {
            "bufferView" : 20,
            "componentType" : 5126,
            "count" : 4,
            "max" : [
                1.65625,
                0,
                0.5
            ],
            "min" : [
                -1.65625,
                0,
                -0.5
            ],
            "type" : "VEC3"
        },
        {
            "bufferView" : 21,
            "componentType" : 5126,
            "count" : 4,
            "type" : "VEC3"
        },
        {
            "bufferView" : 22,
            "componentType" : 5126,
            "count" : 4,
            "type" : "VEC2"
        }
    ],
    "bufferViews" : [
        {
            "buffer" : 0,
            "byteLength" : 48,
            "byteOffset" : 0
        },
        {
            "buffer" : 0,
            "byteLength" : 48,
            "byteOffset" : 48
        },
        {
            "buffer" : 0,
            "byteLength" : 32,
            "byteOffset" : 96
        },
        {
            "buffer" : 0,
            "byteLength" : 12,
            "byteOffset" : 128
        },
        {
            "buffer" : 0,
            "byteLength" : 169500,
            "byteOffset" : 140
        },
        {
            "buffer" : 0,
            "byteLength" : 192,
            "byteOffset" : 169640
        },
        {
            "buffer" : 0,
            "byteLength" : 192,
            "byteOffset" : 169832
        },
        {
            "buffer" : 0,
            "byteLength" : 128,
            "byteOffset" : 170024
        },
        {
            "buffer" : 0,
            "byteLength" : 48,
            "byteOffset" : 170152
        },
        {
            "buffer" : 0,
            "byteLength" : 123775,
            "byteOffset" : 170200
        },
        {
            "buffer" : 0,
            "byteLength" : 48,
            "byteOffset" : 293976
        },
        {
            "buffer" : 0,
            "byteLength" : 48,
            "byteOffset" : 294024
        },
        {
            "buffer" : 0,
            "byteLength" : 32,
            "byteOffset" : 294072
        },
        {
            "buffer" : 0,
            "byteLength" : 25092,
            "byteOffset" : 294104
        },
        {
            "buffer" : 0,
            "byteLength" : 48,
            "byteOffset" : 319196
        },
        {
            "buffer" : 0,
            "byteLength" : 48,
            "byteOffset" : 319244
        },
        {
            "buffer" : 0,
            "byteLength" : 32,
            "byteOffset" : 319292
        },
        {
            "buffer" : 0,
            "byteLength" : 48,
            "byteOffset" : 319324
        },
        {
            "buffer" : 0,
            "byteLength" : 48,
            "byteOffset" : 319372
        },
        {
            "buffer" : 0,
            "byteLength" : 32,
            "byteOffset" : 319420
        },
        {
            "buffer" : 0,
            "byteLength" : 48,
            "byteOffset" : 319452
        },
        {
            "buffer" : 0,
            "byteLength" : 48,
            "byteOffset" : 319500
        },
        {
            "buffer" : 0,
            "byteLength" : 32,
            "byteOffset" : 319548
        }
    ],
    "samplers" : [
        {
            "magFilter" : 9728,
            "minFilter" : 9984
        },
        {
            "magFilter" : 9728,
            "minFilter" : 9984,
            "wrapS" : 33071,
            "wrapT" : 33071
        },
        {
            "magFilter" : 9729,
            "minFilter" : 9986
        }
    ],
    "buffers" : [
        {
            "byteLength" : 319580,
            "uri" : "data:application/octet-stream;base64,"
        }
    ]
}
